<?xml version="1.0" encoding="iso-8859-1"?>
<!-- Generator: Adobe Illustrator 19.0.0, SVG Export Plug-In . SVG Version: 6.00 Build 0)  -->
<svg version="1.1" id="Layer_1" xmlns="http://www.w3.org/2000/svg" xmlns:xlink="http://www.w3.org/1999/xlink" x="0px" y="0px"
	 viewBox="0 0 512 512" style="enable-background:new 0 0 512 512;" xml:space="preserve" fill="#3d3f40">
<g>
	<g>
		<path d="M469.333,296.96v-70.827C469.333,108.313,373.821,12.8,256,12.8S42.667,108.313,42.667,226.133v70.827
			C17.376,304.5,0.031,327.743,0,354.133V422.4c0,32.99,26.744,59.733,59.733,59.733H76.8h1.536
			c3.607,10.204,13.242,17.036,24.064,17.067h17.067c18.851,0,34.133-15.282,34.133-34.133v-153.6
			c0-18.851-15.282-34.133-34.133-34.133H102.4c-2.911,0.023-5.797,0.543-8.533,1.536v-52.736C93.867,136.59,166.456,64,256,64
			s162.133,72.59,162.133,162.133v52.736c-2.736-0.993-5.622-1.513-8.533-1.536h-17.067c-18.851,0-34.133,15.282-34.133,34.133
			v153.6c0,18.851,15.282,34.133,34.133,34.133H409.6c10.822-0.03,20.457-6.863,24.064-17.067h1.536h17.067
			c32.99,0,59.733-26.744,59.733-59.733v-68.267C511.969,327.743,494.624,304.5,469.333,296.96z M418.133,473.6
			c0,4.713-3.82,8.533-8.533,8.533h-17.067c-9.426,0-17.067-7.641-17.067-17.067v-153.6c0-9.426,7.641-17.067,17.067-17.067H409.6
			c4.713,0,8.533,3.82,8.533,8.533V473.6z M76.8,465.067H59.733c-23.564,0-42.667-19.102-42.667-42.667v-68.267
			c0.01-20.856,15.096-38.649,35.669-42.069c2.309-0.415,4.651-0.615,6.997-0.597H76.8V465.067z M102.4,294.4h17.067
			c9.426,0,17.067,7.641,17.067,17.067v153.6c0,9.426-7.641,17.067-17.067,17.067H102.4c-4.713,0-8.533-3.82-8.533-8.533V302.933
			C93.867,298.221,97.687,294.4,102.4,294.4z M256,46.933c-98.969,0-179.2,80.231-179.2,179.2V294.4H59.733v-68.267
			c0-108.395,87.872-196.267,196.267-196.267s196.267,87.872,196.267,196.267V294.4H435.2v-68.267
			C435.2,127.164,354.969,46.933,256,46.933z M494.933,422.4c0,23.564-19.102,42.667-42.667,42.667H435.2v-153.6h17.067
			c2.405,0.006,4.805,0.234,7.168,0.683c20.474,3.489,35.462,21.215,35.499,41.984V422.4z"/>
	</g>
</g>
<g>
</g>
<g>
</g>
<g>
</g>
<g>
</g>
<g>
</g>
<g>
</g>
<g>
</g>
<g>
</g>
<g>
</g>
<g>
</g>
<g>
</g>
<g>
</g>
<g>
</g>
<g>
</g>
<g>
</g>
</svg>
